<?xml version='1.0' encoding='utf-8'?>
<svg xmlns:xlink="http://www.w3.org/1999/xlink" xmlns="http://www.w3.org/2000/svg" width="500" height="500" viewBox="0 0 132.29166 132.29167" version="1.1" id="svg5"> <defs id="defs2"> <filter style="color-interpolation-filters:sRGB" id="filter44488" x="-0.050010046" y="-0.04411382" width="1.1000201" height="1.0882276"> <feGaussianBlur stdDeviation="1.6825493" id="feGaussianBlur44490"/> </filter> <filter style="color-interpolation-filters:sRGB" id="filter44496" x="-0.038118872" y="-0.033624625" width="1.0762377" height="1.0672493"> <feGaussianBlur stdDeviation="1.28248" id="feGaussianBlur44494"/> </filter> </defs> <g id="layer1"> <rect style="opacity:1;fill:#da3a3d;fill-opacity:1;stroke-width:0.79375;stroke-linecap:round;stroke-linejoin:round;stop-color:#000000" id="rect22148" width="132.29167" height="132.29167" x="0" y="0"/> <path style="opacity:1;mix-blend-mode:normal;fill:#741f20;fill-opacity:1;stroke-width:0.79375;stroke-linecap:round;stroke-linejoin:round;filter:url(#filter44488);stop-color:#000000" d="M 61.719706,28.831471 C 56.464252,32.548165 28.279256,84.769864 25.101294,93.776885 21.923331,102.78391 33.772813,113.17 56.44972,116.5602 c 22.67691,3.39021 44.09222,-4.0941 48.43596,-12.82818 C 109.22943,94.997929 80.995078,33.758764 76.315967,29.176243 71.636854,24.593722 67.112668,25.01753 61.719706,28.831471 Z" id="path43987"/> <path style="opacity:1;mix-blend-mode:normal;fill:#401212;fill-opacity:1;stroke-width:0.813148;stroke-linecap:round;stroke-linejoin:round;filter:url(#filter44496);stop-color:#000000" d="M 61.719706,28.831471 C 56.464252,32.548165 28.279256,84.769864 25.101294,93.776885 21.923331,102.78391 33.772813,113.17 56.44972,116.5602 c 22.67691,3.39021 44.09222,-4.0941 48.43596,-12.82818 C 109.22943,94.997929 80.995078,33.758764 76.315967,29.176243 71.636854,24.593722 67.112668,25.01753 61.719706,28.831471 Z" id="path44492" transform="matrix(1,0,0,0.95285741,0,0.9862062)"/> <path style="opacity:1;fill:#da3a3d;fill-opacity:1;stroke-width:0.79375;stroke-linecap:round;stroke-linejoin:round;stop-color:#000000" d="M 60.998311,27.424252 C 56.057647,30.918325 29.560869,80.01206 26.57326,88.479581 23.58565,96.9471 34.725374,106.71109 56.043985,109.89823 77.362599,113.08537 97.495174,106.04936 101.57874,97.838425 105.6623,89.627487 79.119131,32.056411 74.720288,27.748373 70.321444,23.440335 66.068246,23.838758 60.998311,27.424252 Z" id="path24709"/> <path id="path31142" style="opacity:1;fill:#e1ac64;fill-opacity:1;stroke-width:0.79375;stroke-linecap:round;stroke-linejoin:round;stop-color:#000000" d="m 30.487544,79.898481 c -1.940529,3.921729 -3.349723,6.980204 -3.914489,8.580872 -2.987607,8.46751 8.152479,18.231707 29.471069,21.418847 21.318592,3.18714 41.451125,-3.8488 45.534686,-12.059729 1.14646,-2.305222 -0.1222,-8.501868 -2.636013,-16.31735 -5.224794,6.445268 -13.415804,11.226315 -33.980872,12.360486 -20.0702,1.106879 -29.87435,-9.012779 -34.474381,-13.983126 z"/> <path id="path24774" style="opacity:1;fill:#8a8c1a;fill-opacity:1;stroke-width:0.79375;stroke-linecap:round;stroke-linejoin:round;stop-color:#000000" d="m 28.54141,83.926142 c -0.929445,1.981499 -1.616732,3.556636 -1.968355,4.553211 -2.987607,8.46751 8.152479,18.231707 29.471069,21.418847 21.318592,3.18714 41.451125,-3.8488 45.534686,-12.059729 0.84775,-1.704593 0.37277,-5.540733 -0.94723,-10.581783 C 94.884281,92.8038 88.063348,97.648598 66.012778,98.972916 46.901429,100.12071 34.076848,91.29524 28.54141,83.926142 Z"/> <path id="path31555" style="opacity:1;fill:#606112;fill-opacity:1;stroke-width:0.79375;stroke-linecap:round;stroke-linejoin:round;stop-color:#000000" d="m 26.632999,88.322256 c -0.01747,0.048 -0.04383,0.11143 -0.05994,0.1571 -2.987607,8.46751 8.152479,18.231704 29.471069,21.418844 21.318592,3.18714 41.451125,-3.8488 45.534682,-12.059724 0.46299,-0.93096 0.52863,-2.50175 0.28112,-4.55218 -2.538357,3.19943 -6.070974,6.552406 -10.805537,8.846484 -11.845341,5.73955 -27.293725,6.87395 -45.56466,2.02572 C 34.501331,101.2427 29.153594,93.796976 26.633003,88.322256 Z"/> <g id="g35859" transform="matrix(0.19140444,0.03982118,-0.03982118,0.19140444,36.432568,41.73786)" style="stroke-width:5.11501"> <path style="opacity:1;fill:#7e2123;fill-opacity:1;stroke-width:4.06004;stroke-linecap:round;stroke-linejoin:round;stop-color:#000000" d="m 110.25032,14.741497 c -2.56574,-1.954781 -6.72591,1.024128 -8.03127,4.266746 -1.30534,3.242621 -6.975032,18.38114 -1.90004,23.782578 5.07498,5.401436 13.63369,3.505081 15.75296,-3.581103 2.11929,-7.086187 -0.86901,-20.048691 -5.82165,-24.468221 z" id="path37850"/> <path style="opacity:1;fill:#390f10;fill-opacity:1;stroke-width:4.06004;stroke-linecap:round;stroke-linejoin:round;stop-color:#000000" d="m 109.29548,17.83583 c -2.02677,-1.634084 -5.2546,0.783279 -6.24547,3.443731 -0.99086,2.660453 -5.284602,15.084888 -1.26109,19.581998 4.02351,4.497107 10.70434,3.011569 12.29573,-2.809007 1.5914,-5.820577 -0.87074,-16.529904 -4.78917,-20.216722 z" id="path31692"/> <path style="opacity:1;fill:#5b181a;fill-opacity:1;stroke-width:4.06004;stroke-linecap:round;stroke-linejoin:round;stop-color:#000000" d="m 107.41884,19.105285 c -2.16189,0.10804 -4.8192,7.090029 -4.80419,13.410292 0.015,6.320263 4.98432,7.535698 8.27221,4.132479 3.28788,-3.403216 -1.45627,-18.042449 -3.46802,-17.542771 z" id="path32447"/> <path style="opacity:1;fill:#ffffff;fill-opacity:1;stroke-width:4.06004;stroke-linecap:round;stroke-linejoin:round;stop-color:#000000" d="m 106.18568,20.316012 c -1.22879,-0.317516 -1.84451,1.064753 -2.09664,1.804828 -0.25212,0.740075 0.7325,1.60668 1.64546,0.971647 0.91297,-0.635032 1.38272,-2.590262 0.45118,-2.776475 z" id="path34780"/> <path style="opacity:1;fill:#ffffff;fill-opacity:1;stroke-width:4.06004;stroke-linecap:round;stroke-linejoin:round;stop-color:#000000" d="m 104.65699,24.966548 c -0.84661,-0.155177 -1.39333,0.763949 -1.63749,1.854963 -0.24417,1.091014 0.24151,2.167702 1.38537,1.527897 1.14386,-0.639808 1.32698,-3.337502 0.25212,-3.38286 z" id="path35853"/> <path style="opacity:1;fill:#fdf7f7;fill-opacity:1;stroke-width:4.06004;stroke-linecap:round;stroke-linejoin:round;stop-color:#000000" d="m 105.07033,45.764107 c 0,0 5.05533,0.782708 8.70999,-3.329069 3.65466,-4.111764 2.84415,-11.871926 2.84415,-11.871926 0,0 2.42739,9.311147 -2.01014,13.382957 -4.43755,4.071798 -7.13594,3.213252 -9.544,1.818038 z" id="path39449"/> </g> <use x="0" y="0" xlink:href="#g35859" id="use35863" transform="rotate(-9.0414963,134.44892,4.4691767)"/> <use x="0" y="0" xlink:href="#g35859" id="use35865" transform="rotate(-23.43972,67.486255,-1.5991347)"/> <use x="0" y="0" xlink:href="#g35859" id="use35867" transform="rotate(-8.4397202,7.2850392,-29.920813)"/> <use x="0" y="0" xlink:href="#g35859" id="use35869" transform="rotate(2.8391848,-282.06658,14.350744)"/> <use x="0" y="0" xlink:href="#g35859" id="use35871" transform="rotate(-8.43972,278.91903,8.6190475)"/> <use x="0" y="0" xlink:href="#g35859" id="use35873" transform="rotate(-23.43972,107.43897,3.9151065)"/> <use x="0" y="0" xlink:href="#g35859" id="use35875" transform="rotate(6.5602798,-188.17077,-51.83924)"/> <use x="0" y="0" xlink:href="#g35859" id="use35861" transform="rotate(-23.43972,142.39602,-5.9300613)"/> <path id="path35877" style="opacity:1;fill:#000000;fill-opacity:0.11255562;stroke-width:0.79375;stroke-linecap:round;stroke-linejoin:round;stop-color:#000000" d="M 78.743513 34.289896 C 83.532367 47.076705 92.710784 73.198931 92.243464 84.458926 C 91.612918 99.651846 74.062287 106.28279 56.406892 103.87893 C 43.111706 102.06873 33.65736 99.016165 26.31674 93.150385 C 27.946409 100.26106 38.57782 107.28698 56.044124 109.8982 C 77.362716 113.08534 97.495249 106.0494 101.57881 97.838471 C 104.9539 91.052072 87.417035 50.572546 78.743513 34.289896 z "/> <path id="path35945" style="opacity:1;fill:#000000;fill-opacity:0.112556;stroke-width:0.79375;stroke-linecap:round;stroke-linejoin:round;stop-color:#000000" d="M 75.458959 28.666984 C 80.424547 41.579207 85.158143 66.953245 84.574165 73.975329 C 83.838535 82.820981 79.48476 97.865381 54.593049 98.770197 C 38.913045 99.340166 30.326683 94.413635 26.115718 90.688003 C 25.578968 98.577992 36.558673 106.98512 56.044124 109.8982 C 77.362716 113.08534 97.495249 106.0494 101.57881 97.838471 C 105.47555 90.003185 81.484632 37.22349 75.458959 28.666984 z "/> <path id="path35950" style="opacity:1;fill:#ffffff;fill-opacity:0.112556;stroke-width:0.79375;stroke-linecap:round;stroke-linejoin:round;stop-color:#000000" d="M 68.111087 24.626403 C 65.864193 24.635691 63.533308 25.63142 60.998343 27.424166 C 56.462473 30.631965 33.771598 72.25059 27.769881 85.604593 C 36.027601 81.37605 47.640806 54.712865 51.590649 49.626428 C 55.86938 44.116462 54.863419 45.048107 58.841886 42.981872 C 62.820352 40.915637 61.724217 36.78302 63.841064 31.165022 C 65.065585 27.915206 68.705836 26.261603 71.562039 25.440307 C 70.423028 24.885764 69.278516 24.621578 68.111087 24.626403 z "/> <path id="path37845" style="opacity:1;fill:#ffffff;fill-opacity:0.112556;stroke-width:0.79375;stroke-linecap:round;stroke-linejoin:round;stop-color:#000000" d="M 66.901859 24.725622 C 65.027324 25.017101 63.081972 25.950608 60.998343 27.424166 C 57.118453 30.168051 39.9846 60.970094 31.342273 78.19781 C 34.956249 74.262555 40.541145 67.578538 43.168424 61.267577 C 47.221964 51.530609 53.482377 40.740218 56.154711 40.524141 C 58.827043 40.308061 60.298219 41.833743 61.108931 35.837605 C 61.716071 31.347107 63.434941 26.72072 66.901859 24.725622 z "/> </g> </svg>